<svg xmlns="http://www.w3.org/2000/svg" xmlns:xlink="http://www.w3.org/1999/xlink" viewBox="1741.483 5599.542 3589.784 2409.42"><defs><style>.a{fill:none;}.b{clip-path:url(#a);}.c{fill:#c4ba83;}.d{fill:#ef8000;}.e,.f{fill:#fff;}.e{font-size:43px;}.e,.f,.i,.j{font-family:Helvetica-Bold, Helvetica;}.e,.f,.i,.j,.k,.l{font-weight:700;}.f{font-size:48px;}.g,.k,.l{fill:#2b2e34;}.h{fill:#ececec;}.i{font-size:60px;}.j{font-size:57px;}.k{font-size:32px;}.k,.l{font-family:HelveticaNeue-Bold, Helvetica Neue;}.l{font-size:33px;}.m{fill:#3b999f;}</style><clipPath id="a"><rect class="a" width="3589.784" height="2409.42"/></clipPath></defs><g class="b" transform="translate(1741.483 5599.542)"><g transform="translate(-1741.483 -5599.542)"><g transform="translate(-1)"><path class="c" d="M1621.1,1.1l332.019,118.455,22.827-51.013L1923.722,1.1Z" transform="translate(2724.485 5600.342)"/><path class="c" d="M1897.1,1.1l141.8,209.241,366.6,117.59V1.1Z" transform="translate(2925.762 5600.342)"/><path class="c" d="M2226.133,334.507l-27.667-5.707s-57.585,190.738-55.339,193.159c2.249,2.248,83.006,31.127,83.006,31.127Z" transform="translate(3105.135 5839.324)"/><path class="c" d="M2125.757,1370.837l-136.957-14.18,22.654-214.257,134.709,16.6Z" transform="translate(2992.637 6432.657)"/><path class="d" d="M2225.842,1033.245,1906.1,1009.728l98.743-301.066L2149.235,536.6l170.333,56.2Z" transform="translate(2932.326 5990.866)"/><rect class="a" width="167.739" height="108.771" transform="translate(2064.683 6976.21)"/><g transform="translate(1992.054 6935.054)"><path class="d" d="M536.437,867.928l-264.75,28.014L260.1,817.952,523.986,772.3Z" transform="translate(-260.1 -772.3)"/><text class="e" transform="translate(134.305 80.476)"><tspan x="0" y="0">1</tspan></text></g><rect class="a" width="167.739" height="108.771" transform="translate(2346.899 6938.339)"/><g transform="translate(2268.39 6879.544)"><path class="d" d="M726.5,855.888l-294.321,31.3L419.9,791.559,718.2,740.2Z" transform="translate(-419.9 -740.199)"/><text class="e" transform="translate(145.062 83.206)"><tspan x="0" y="0">2</tspan></text></g><rect class="a" width="167.739" height="108.771" transform="translate(2617.702 6888.018)"/><rect class="a" width="167.739" height="108.771" transform="translate(2865.159 6783.399)"/><rect class="a" width="167.739" height="108.771" transform="translate(3051.057 6782.361)"/><rect class="a" width="167.739" height="67.441" transform="translate(3055.899 6391.893)"/><rect class="a" width="167.739" height="67.441" transform="translate(3692.095 6173.487)"/><rect class="a" width="167.739" height="67.441" transform="translate(3741.379 6642.116)"/><rect class="a" width="167.739" height="67.441" transform="translate(4057.489 6551.158)"/><g transform="translate(4033.625 6159.996)"><path class="d" d="M1607.055,1104.864l-16.255,7.782-150.1-13.489L1471.136,324.1l185.031,73.667Z" transform="translate(-1440.7 -324.1)"/><text class="e" transform="translate(73.106 380.665)"><tspan x="0" y="0">10</tspan></text></g><rect class="a" width="167.739" height="67.441" transform="translate(4248.919 6591.102)"/><g transform="translate(4212.088 6240.577)"><path class="d" d="M1751.646,826.685l-11.932,185.377-39.947,7.782-73.147,20.578-34.931,13.142L1546.9,1073.8l1.73-24.9,47.383-682.2,180.708,71.937Z" transform="translate(-1546.9 -366.7)"/><text class="f" transform="translate(86.012 383.795)"><tspan x="0" y="0">11</tspan></text></g><path class="a" d="M1862.331,693.441H1694.593L1677.3,626h167.739Z" transform="translate(2765.469 6056.063)"/><g transform="translate(4427.379 6306.81)"><path class="d" d="M1847.033,632.248l37.179,14.7-8.992,267.69-2.075,66.577-.173,4.5-75.4-10.376-67.269-1.037-61.907,6.917L1708.346,409l148.891,59.314Z" transform="translate(-1668.4 -409)"/><text class="e" transform="translate(70.889 404.54)"><tspan x="0" y="0">12</tspan></text></g><rect class="a" width="167.739" height="45.48" transform="translate(4651.492 6747.774)"/><g transform="translate(4649.244 6667.019)"><path class="d" d="M1930.718,820.489l-48.421,29.4-42.713-11.413-42.885-9.511,6.917-211.662,198,18.157Z" transform="translate(-1796.7 -617.3)"/><text class="e" transform="translate(51.514 110.147)"><tspan x="0" y="0">13</tspan></text></g><path class="a" d="M1975.139,593.341H1807.4l17.293-67.441H1992.43Z" transform="translate(2860.347 5983.063)"/><g transform="translate(4623.305 6352.121)"><path class="d" d="M2010.48,757.362l-195.926-17.984,4.324-127.1-37.178-14.7,10.03-162.378,69.343,25.939,161.859,64.329Z" transform="translate(-1781.7 -435.2)"/><text class="e" transform="translate(104.713 186.189)"><tspan x="0" y="0">14</tspan></text></g><path class="a" d="M2113.5,400.214H1945.758L1942.3,332.6h167.739Z" transform="translate(2958.725 5842.096)"/><g transform="translate(4930.686 6060.737)"><path class="d" d="M1996.55,266.7l112.923,38.044L2073.1,417.4,1959.46,380.254,1996.55,266.7" transform="translate(-1959.46 -266.7)"/><text class="e" transform="translate(40.798 98.664)"><tspan x="0" y="0">15</tspan></text></g><rect class="a" width="167.739" height="67.441" transform="translate(5058.043 6221.904)"/><rect class="a" width="167.739" height="67.441" transform="translate(4974.519 6793.773)"/><g transform="translate(5023.743 6790.063)"><text class="e" transform="translate(0 33)"><tspan x="0" y="0">17</tspan></text></g><path class="a" d="M2029.538,1040.214H1861.8l51.878-67.614h167.739Z" transform="translate(2900.019 6308.828)"/><g transform="translate(4667.748 7017.885)"><path class="d" d="M2100.165,1580.9l-207.686-14.7,15.737-217.887-100.816-396,26.63-6.052,40.637-12.451,42.715-19.2,20.405-16.255,14.526-14.526,13.142-25.939,12.624-37.7,319.741,23.517-22.48,108.6-21.271,423.67-122.778-13.834Z" transform="translate(-1807.4 -820.2)"/><text class="e" transform="translate(176.23 292.94)"><tspan x="0" y="0">18</tspan></text></g><rect class="a" width="167.739" height="67.441" transform="translate(4454.355 7457.984)"/><g transform="translate(4367.375 7152.077)"><path class="d" d="M2000.4,1509.614l-364.7-25.938L1664.059,899.7l54.991,5.706,57.584,1.9h56.2l82.486-9.511,19.714,75.742,81.1,318.185Z" transform="translate(-1635.7 -897.8)"/><text class="e" transform="translate(141.487 335.265)"><tspan x="0" y="0">19</tspan></text></g><path class="a" d="M1695.639,1125.141H1527.9l1.729-67.441h167.74Z" transform="translate(2656.518 6370.886)"/><g transform="translate(4154.5 7075.298)"><path class="d" d="M1709.637,1516.055,1510.6,1502.048l39.772-616.31,2.248-32.337,33.2,23.518,38.562,19.714,51.878,20.059L1738,932.081Z" transform="translate(-1510.6 -853.4)"/><text class="e" transform="translate(80.213 382.601)"><tspan x="0" y="0">20</tspan></text></g><rect class="a" width="167.739" height="67.441" transform="translate(3985.379 7412.333)"/><g transform="translate(3957.538 7049.014)"><path class="d" d="M1618.392,867.77l-13.834,211.143-16.774,257.834-3.458,54.126-7.956,122.259-179.67-12.8,14.7-175.521-7.091-.518,27.843-399.288L1438.2,838.2,1604.211,851Z" transform="translate(-1396.7 -838.2)"/><text class="e" transform="translate(77.065 392.577)"><tspan x="0" y="0">21</tspan></text></g><rect class="a" width="167.739" height="67.441" transform="translate(3725.297 7137.723)"/><g transform="translate(3634.165 7028.091)"><path class="d" d="M1209.7,1069.062V852.384l70.036,26.458,4.323-52.743,273.223,20.924-5.706,82.313-28.187,403.783-107.906-8.991,4.323-173.792h-56.2l-1.73-76.088Z" transform="translate(-1209.7 -826.1)"/><text class="e" transform="translate(140.399 139.047)"><tspan x="0" y="0">22</tspan></text></g><rect class="a" width="167.739" height="67.441" transform="translate(3205.653 7175.768)"/><g transform="translate(3070.424 7040.193)"><path class="d" d="M921.744,1189.848,883.7,1032.312l64.848-20.925-16.255-104.62-46-42.713,301.93-30.954,6.917,36.833,81.968-13.834,8.127,37.353,8.473,38.562,28.359,128.139L1134.1,1094.739l10.376,53.088Z" transform="translate(-883.7 -833.099)"/><text class="e" transform="translate(184.522 164.994)"><tspan x="0" y="0">23</tspan></text></g><rect class="a" width="167.739" height="67.441" transform="translate(2786.132 7125.965)"/><g transform="translate(2712.639 7063.366)"><path class="d" d="M1003.631,984.668,699.28,1039.313,676.8,880.566,1010.375,846.5l48.592,42.539,16.255,104.62-64.848,20.751Z" transform="translate(-676.8 -846.5)"/><text class="e" transform="translate(122.79 91.962)"><tspan x="0" y="0">24</tspan></text></g><rect class="a" width="167.739" height="67.441" transform="translate(2458.611 7184.761)"/><g transform="translate(2365.575 7105.387)"><path class="d" d="M834.577,1029.547l-190.738,34.24-144.912,24.9L476.1,904.693l336-33.893Z" transform="translate(-476.1 -870.8)"/><text class="e" transform="translate(142.234 108.731)"><tspan x="0" y="0">25</tspan></text></g><rect class="a" width="167.739" height="67.441" transform="translate(2171.552 7243.382)"/><g transform="translate(2003.464 7176.114)"><path class="d" d="M639.3,1057.4l-375.6,42.021,29.916-143.01L621.485,913.7Z" transform="translate(-263.7 -913.7)"/><text class="e" transform="translate(140.282 104.59)"><tspan x="0" y="0">26</tspan></text></g><rect class="a" width="167.739" height="54.299" transform="translate(3180.751 6567.238)"/><path class="c" d="M361.011,1651.547,272.3,1095.934l392.025-43.75L1288.071,940.3c0,5.707,80.757,334.268,80.757,334.268l-88.712,13.833,11.586,42.713,146.469-17.292,43.751,209.76L1336.663,1549s5.707,39.254-1.21,39.254-845.611,133.673-846.476,130.213-14.872-90.613-14.872-90.613" transform="translate(1730.48 6288.728)"/><path class="g" d="M56.295,35.907v22.03H33.278L0,28.938,33.278,0H56.295V22.03l-9.183,6.953Z" transform="translate(4353.945 7952.744) rotate(93)"/><rect class="a" width="167.739" height="108.771" transform="translate(2346.9 6938.339)"/><rect class="a" width="167.739" height="108.771" transform="translate(2865.159 6783.399)"/><rect class="a" width="167.739" height="108.771" transform="translate(3051.057 6782.361)"/><rect class="a" width="167.739" height="67.441" transform="translate(3692.095 6173.487)"/><rect class="a" width="167.739" height="67.441" transform="translate(3741.378 6642.116)"/><rect class="a" width="167.739" height="67.441" transform="translate(4057.489 6551.158)"/><rect class="a" width="167.739" height="67.441" transform="translate(4248.919 6591.102)"/><path class="a" d="M1862.331,693.441H1694.593L1677.3,626h167.739Z" transform="translate(2765.469 6056.063)"/><rect class="a" width="167.739" height="45.48" transform="translate(4651.492 6747.774)"/><path class="a" d="M1975.139,593.341H1807.4l17.293-67.441H1992.43Z" transform="translate(2860.347 5983.063)"/><path class="a" d="M2113.5,400.214H1945.758L1942.3,332.6h167.739Z" transform="translate(2958.725 5842.096)"/><g transform="translate(4897.567 6178.88)"><path class="d" d="M2017.628,349.957l68.3,22.269-30.46,94.906L1940.3,429.78l31.319-94.73" transform="translate(-1940.3 -335.051)"/><text class="e" transform="translate(49.084 79.853)"><tspan x="0" y="0">27</tspan></text></g><rect class="a" width="167.739" height="67.441" transform="translate(5058.042 6221.904)"/><g transform="translate(5055.536 6228.262)"><path class="d" d="M2016.75,350.356l68.14,22.865-25.184,97.663-118.451-42.263,29.6-93.571" transform="translate(-1941.254 -335.051)"/><text class="e" transform="translate(46.799 77.679)"><tspan x="0" y="0">28</tspan></text></g><path class="a" d="M2029.538,1040.214H1861.8l51.878-67.614h167.739Z" transform="translate(2900.02 6308.828)"/><rect class="a" width="167.739" height="67.441" transform="translate(4454.355 7457.984)"/><path class="a" d="M1695.639,1125.141H1527.9l1.729-67.441h167.74Z" transform="translate(2656.518 6370.886)"/><rect class="a" width="167.739" height="67.441" transform="translate(3985.379 7412.333)"/><rect class="a" width="167.739" height="67.441" transform="translate(3725.297 7137.723)"/><rect class="a" width="167.739" height="67.441" transform="translate(3205.653 7175.768)"/><rect class="a" width="167.739" height="67.441" transform="translate(2786.132 7125.965)"/><rect class="a" width="167.739" height="67.441" transform="translate(2171.552 7243.382)"/><rect class="a" width="167.739" height="54.299" transform="translate(3180.752 6567.238)"/><g transform="translate(2575.162 6829.049)"><path class="d" d="M881.073,841.906,605.6,873.552l-8.3-118.282L854.442,711Z" transform="translate(-597.3 -711)"/><text class="e" transform="translate(109.086 98.324)"><tspan x="0" y="0">3</tspan></text></g><rect class="h" width="129.133" height="4.967" transform="translate(4924.417 6172.476) rotate(18)"/><rect class="h" width="129.133" height="4.967" transform="translate(5078.383 6222.142) rotate(18)"/><text class="i" transform="translate(4306.953 6170.945) rotate(19)"><tspan x="0" y="0">Oostraat</tspan></text><text class="j" transform="translate(4406.285 5793.481) rotate(19)"><tspan x="0" y="0">Oostdijk</tspan></text><text class="k" transform="translate(3503.695 6324.033) rotate(83)"><tspan x="0" y="31">Wilhelminaplein</tspan></text><text class="k" transform="matrix(0.995, -0.105, 0.105, 0.995, 2410.699, 7039.757)"><tspan x="0" y="31">Veilingpassage</tspan></text><text class="l" transform="matrix(0.999, 0.052, -0.052, 0.999, 4252.187, 6975.349)"><tspan x="0" y="32">Veilingpassage</tspan></text><text class="k" transform="translate(1833.58 6252.56) rotate(83)"><tspan x="0" y="31">Oostvoorstraat</tspan></text><path class="m" d="M142.424,0H14.242A14.284,14.284,0,0,0,0,14.242V142.424a14.284,14.284,0,0,0,14.242,14.242H142.424a14.284,14.284,0,0,0,14.242-14.242V14.242A14.284,14.284,0,0,0,142.424,0Zm5.7,139.576a8.664,8.664,0,0,1-8.545,8.545H17.091a8.664,8.664,0,0,1-8.545-8.545V17.091a8.664,8.664,0,0,1,8.545-8.545H139.219a8.664,8.664,0,0,1,8.545,8.545V139.576Z" transform="matrix(0.998, 0.07, -0.07, 0.998, 4258.938, 7774.198)"/><path class="m" d="M0,120.348H120.348V0H0ZM29.2,17.8H67.3A26.289,26.289,0,0,1,93.644,44.151v8.189A26.289,26.289,0,0,1,67.3,78.689H47.356v26.7H29.2V17.8Z" transform="matrix(0.998, 0.07, -0.07, 0.998, 4275.787, 7793.579)"/><path class="m" d="M28.129,16.379V8.189A8.058,8.058,0,0,0,19.939,0H0V24.568H19.939A8.058,8.058,0,0,0,28.129,16.379Z" transform="matrix(0.998, 0.07, -0.07, 0.998, 4320.519, 7832.757)"/><g transform="translate(3611.684 6316.15)"><path class="d" d="M1601.348,1050.6l-298.3-26.285L1305.645,988l-93.381-1.729L1196.7,551.358l146.123,11.24,1.73-63.983-7.608-.173V414.4l289.478,23.172Z" transform="translate(-1196.7 -414.4)"/><text class="e" transform="translate(196.213 350.309)"><tspan x="0" y="0">9</tspan></text></g><g transform="translate(3577.963 6002.635)"><path class="d" d="M1623.35,552.5l-289.478-23.172v84.042L1188.44,610.08,1177.2,279.963l56.2-46.863,395.31,157.709Z" transform="translate(-1177.2 -233.1)"/><text class="e" transform="translate(180.624 195.191)"><tspan x="0" y="0">8</tspan></text></g><g transform="translate(2935.195 6297.992)"><path class="d" d="M1214.644,604.495,836.627,676.086,805.5,484.657,1189.4,403.9Z" transform="translate(-805.5 -403.9)"/><text class="e" transform="translate(192.466 151.132)"><tspan x="0" y="0">7</tspan></text></g><g transform="translate(3019.065 6506.369)"><path class="d" d="M1205.906,625.043l51.358,229.128-78.508,23,5.879,41.5L1108.548,930.6l-63.465-279.276L869.39,677.44,854,586.654,1183.425,524.4Z" transform="translate(-854 -524.4)"/><text class="e" transform="translate(245.52 106.061)"><tspan x="0" y="0">6</tspan></text></g><g transform="translate(3025.463 6643.154)"><path class="d" d="M1096.857,882.949l-193.85,15.045L857.7,629.785,1033.394,603.5Z" transform="translate(-857.7 -603.5)"/><text class="e" transform="translate(102.478 165.293)"><tspan x="0" y="0">5</tspan></text></g><g transform="translate(2811.207 6551.156)"><path class="d" d="M981.6,939.558,792.6,954.083,765.964,823.178l9.338-1.556L733.8,592.148,864.187,550.3l7.954,39.6,48.765-9.338Z" transform="translate(-733.8 -550.3)"/><text class="e" transform="translate(120.502 256.553)"><tspan x="0" y="0">4</tspan></text></g><g transform="translate(5086.249 6111.661)"><path class="d" d="M1996.929,265.548l105.4,36.354-28.782,113.66L1959.46,379.148l37.469-113.6" transform="translate(-1959.46 -265.548)"/><text class="e" transform="translate(40.918 94.948)"><tspan x="0" y="0">16</tspan></text></g><path class="c" d="M1194.262,1200,328.419,1358.056,115.2,1.1H245.414L1095,177.485l-54.126,206.3,36.833,1.21-1.037,25.42-21.962,38.044Z" transform="translate(1626.283 5600.342)"/><path class="c" d="M1351.029,43.3l172.062,73.494,304.351,84.734,239.5,89.922L2185.4,319.118l-5.187,12.97,290.516,93.38-59.659,183.3L1957.138,455.73l-185.033-53.607L1476.4,286.262l-10.375,19.887L1293.1,238.707Z" transform="translate(2485.286 5631.118)"/><path class="c" d="M703.5,0l986.72,259.909,64.847-179.844L1497.233,0Z" transform="translate(2055.31 5599.542)"/></g></g></g></svg>